<svg viewBox="0 0 120 120" xmlns="http://www.w3.org/2000/svg">
  <path d="M42,90 L42,73 Q42,58 60,58 Q78,58 78,73 L78,90 Q78,92 76,92 L44,92 Q42,92 42,90 Z" fill="#34DD84"/>
  <rect x="37" y="64" width="8" height="20" rx="4" fill="#28B86E"/>
  <path d="M74,64 L80,76" stroke="#28B86E" stroke-width="8" stroke-linecap="round"/>
  <circle cx="60" cy="40" r="18" fill="#F2D1AE"/>
  <path d="M51,41 q3,-3 6,0" stroke="#20463A" stroke-width="2.4" fill="none" stroke-linecap="round"/>
  <path d="M63,41 q3,-3 6,0" stroke="#20463A" stroke-width="2.4" fill="none" stroke-linecap="round"/>
  <path d="M55,47 q5,4 10,0" stroke="#20463A" stroke-width="2.2" fill="none" stroke-linecap="round"/>
  <path d="M77,62 q3,-3 0,-7" stroke="#CFE8DD" stroke-width="2.2" fill="none" stroke-linecap="round"/>
  <path d="M83,62 q3,-3 0,-7" stroke="#CFE8DD" stroke-width="2.2" fill="none" stroke-linecap="round"/>
  <rect x="72" y="66" width="16" height="15" rx="2.5" fill="#F5EFE3"/>
  <rect x="72" y="66" width="16" height="4" rx="2" fill="#7A4E32"/>
  <path d="M88,69 q5,0 5,4 q0,4 -5,4" stroke="#D9D2C2" stroke-width="2.5" fill="none"/>
  <circle cx="80" cy="78" r="4" fill="#F2D1AE"/>
</svg>
