<svg viewBox="0 0 120 120" xmlns="http://www.w3.org/2000/svg">
  <path d="M42,90 L42,73 Q42,58 60,58 Q78,58 78,73 L78,90 Q78,92 76,92 L44,92 Q42,92 42,90 Z" fill="#34DD84"/>
  <rect x="37" y="64" width="8" height="22" rx="4" fill="#28B86E"/>
  <rect x="75" y="64" width="8" height="22" rx="4" fill="#28B86E"/>
  <circle cx="60" cy="40" r="18" fill="#F2D1AE"/>
  <path d="M51,40 q3,4 6,0" stroke="#20463A" stroke-width="2.4" fill="none" stroke-linecap="round"/>
  <path d="M63,40 q3,4 6,0" stroke="#20463A" stroke-width="2.4" fill="none" stroke-linecap="round"/>
  <circle cx="60" cy="48" r="2" fill="#20463A"/>
  <path d="M80,22 h10 l-10,10 h10" stroke="#34DD84" stroke-width="3" fill="none" stroke-linejoin="round" stroke-linecap="round"/>
  <path d="M94,10 h7 l-7,7 h7" stroke="#34DD84" stroke-width="2.4" fill="none" stroke-linejoin="round" stroke-linecap="round"/>
</svg>
