<svg viewBox="0 0 120 120" xmlns="http://www.w3.org/2000/svg">
  <path d="M42,90 L42,73 Q42,58 60,58 Q78,58 78,73 L78,90 Q78,92 76,92 L44,92 Q42,92 42,90 Z" fill="#34DD84"/>
  <path d="M48,64 L34,46" stroke="#28B86E" stroke-width="8" stroke-linecap="round"/>
  <path d="M72,64 L86,46" stroke="#28B86E" stroke-width="8" stroke-linecap="round"/>
  <circle cx="34" cy="44" r="5" fill="#F2D1AE"/>
  <circle cx="86" cy="44" r="5" fill="#F2D1AE"/>
  <circle cx="60" cy="40" r="18" fill="#F2D1AE"/>
  <path d="M51,41 q3,-3 6,0" stroke="#20463A" stroke-width="2.4" fill="none" stroke-linecap="round"/>
  <path d="M63,41 q3,-3 6,0" stroke="#20463A" stroke-width="2.4" fill="none" stroke-linecap="round"/>
  <path d="M53,46 q7,7 14,0" stroke="#20463A" stroke-width="2.4" fill="none" stroke-linecap="round"/>
  <path d="M96,26 L98,30 L102,32 L98,34 L96,38 L94,34 L90,32 L94,30 Z" fill="#FFD37A"/>
  <path d="M22,30 L23.6,33.2 L27,34 L23.6,34.8 L22,38 L20.4,34.8 L17,34 L20.4,33.2 Z" fill="#34DD84"/>
  <path d="M84,52 L85.2,54.4 L88,55 L85.2,55.6 L84,58 L82.8,55.6 L80,55 L82.8,54.4 Z" fill="#FFD37A"/>
</svg>
